<?xml version="1.0" encoding="utf-8"?>
<!-- Generator: Adobe Illustrator 24.1.3, SVG Export Plug-In . SVG Version: 6.00 Build 0)  -->
<svg version="1.1" id="Layer_1" xmlns="http://www.w3.org/2000/svg" xmlns:xlink="http://www.w3.org/1999/xlink" x="0px" y="0px"
	 viewBox="0 0 1836 1332" style="enable-background:new 0 0 1836 1332;" xml:space="preserve">
<style type="text/css">
	.st0{fill:none;stroke:#FFFFFF;stroke-width:28;stroke-linecap:round;stroke-miterlimit:10;}
	.st1{fill:#FFFFFF;}
</style>
<path class="st0" d="M554.8,1002.2"/>
<path class="st0" d="M918.1,665.1"/>
<g>
	<path class="st1" d="M581.6,575.9h64c7.7,0,14-6.3,14-14s-6.3-14-14-14h-64c-7.7,0-14,6.3-14,14S573.8,575.9,581.6,575.9z"/>
	<path class="st1" d="M649.6,646.9c0-7.7-6.3-14-14-14h-145c-7.7,0-14,6.3-14,14s6.3,14,14,14h145
		C643.3,660.9,649.6,654.7,649.6,646.9z"/>
	<path class="st1" d="M649.6,731.9c0-7.7-6.3-14-14-14h-90c-7.7,0-14,6.3-14,14s6.3,14,14,14h90
		C643.3,745.9,649.6,739.7,649.6,731.9z"/>
	<path class="st1" d="M1311.6,556.4h-33v-71.5c0-7.7-6.3-14-14-14h-191.4l-10.4,28h124.8v296H990.7l100.6-192.2
		c4.5-8.7,4.2-19.1-0.9-27.5c-5.1-8.4-14.2-13.5-24-13.5h-55.9l46.2-124.6c3.2-8.6,2-18.2-3.3-25.7s-13.8-12-23-12H904.3
		c-13.2,0-24.7,9.3-27.4,22.2l-10.3,49.3h-222c-7.7,0-14,6.3-14,14v14h230.1l-38.1,181.5c-1.7,8.3,0.3,16.9,5.7,23.4
		c5.3,6.5,13.3,10.4,21.7,10.4h54.3l-29.3,184.3c-2.2,13.5,5.8,26.7,18.8,31c2.9,1,5.9,1.4,8.8,1.4c10.2,0,19.9-5.6,24.8-15
		l48.6-92.9h288.6c7.7,0,14-6.3,14-14V584.4h33c11,0,20,9,20,20v76.1c0,11-9,20-20,20h-2v28h2c26.4,0,48-21.5,48-48v-76.1
		C1359.6,578,1338,556.4,1311.6,556.4z M902.6,902.8l34.5-216.7H850l39.3-187.2h0.4l5.9-28h-0.4l9.1-43.5h126.1l-60.2,162.3h96.2
		L902.6,902.8z M1250.6,794.9h-35v-296h35V794.9z"/>
	<path class="st1" d="M630.6,808.9c0,7.7,6.3,14,14,14h215.9l4.5-28H630.6V808.9z"/>
</g>
</svg>
